# xmcd
#
# Track frame offsets: 
#        150
#        14908
#        30983
#        45297
#        63172
#        81581
#        94993
#        113607
#        132885
#        149035
#        164365
#        182004
#        197628
#        217221
#
# Disc length: 3077 seconds
#
# Revision: 0
# Processed by: cddbd v1.5.2PL0 Copyright (c) Steve Scherf et al.
# Submitted via: ExactAudioCopyFreeDBPlugin 1.0
#
DISCID=ca0c030e
DTITLE=ZVA 12-28 BAND - ŠIBENICA FRAJERKA
DYEAR=2015
DGENRE=Blues
TTITLE0=Norbert Červenák - Bim, bim
TTITLE1=Norbert Červenák - Myšlienky
TTITLE2=Norbert Červenák - Papierové blues
TTITLE3=Norbert Červenák - Kalatea
TTITLE4=Norbert Červenák - Aleba
TTITLE5=Norbert Červenák - Smradi
TTITLE6=Norbert Červenák - Šibenica frajerka
TTITLE7=Norbert Červenák - Je po láske
TTITLE8=Norbert Červenák - Ja ti želám
TTITLE9=Norbert Červenák - Vianočná
TTITLE10=Norbert Červenák - Paula
TTITLE11=Norbert Červenák - Som dáky divný
TTITLE12=Norbert Červenák - Ale to nevadí
TTITLE13=Norbert Červenák - Pocta náčelníkovi
EXTD=
EXTT0=
EXTT1=
EXTT2=
EXTT3=
EXTT4=
EXTT5=
EXTT6=
EXTT7=
EXTT8=
EXTT9=
EXTT10=
EXTT11=
EXTT12=
EXTT13=
PLAYORDER=
